<?xml version="1.0" encoding="UTF-8"?>
<svg xmlns="http://www.w3.org/2000/svg" version="1.1" viewBox="0 0 2099.7 935.5">
  <g>
    <g id="Layer_1">
      <g>
        <path fill="#414042" d="M1942.9,426.8c60.2-42.3,87.1-106.3,85.8-169.1-1.3-116.6-96-235.7-237-235.7h-629.4c155.9,40.8,218.8,165.3,218.8,293.3s-48.7,185.7-135.8,257.4l-179.3,140.9h311.3v204.9h411.9c188.3,0,286.9-144.7,286.9-289.5s-38.4-153.7-133.2-202.4ZM1593.2,220.6h167.8c34.6,0,53.8,30.8,53.8,61.5s-17.9,64-56.4,64h-165.2v-125.5ZM1789.2,711.2h-196v-162.7h196c46.1,0,69.2,41,69.2,82s-23.1,80.7-69.2,80.7Z"/>
        <path fill="#414042" d="M1160.8,311.5c0-48.7-39.8-93.5-115.3-93.5s-112.7,53.8-112.7,134.5h-212.6v-33.6c11-144,93.4-258.4,224.6-296.9h-354.6s75.3,67.3,75.5,181.9c-24.6-96.7-110.7-181.9-229.8-181.9H19.5v296.9c.8,11,1.3,22.2,1.3,33.6h-1.3v566.2h413.7c78.4,0,141.3-25.1,188-64.9h0s.3-.2.3-.2c4.6-4,9.1-8,13.4-12.3l461.9-423.4c38.4-34.5,64.1-71.7,64.1-106.3ZM237.3,220.6h167.8c34.6,0,53.8,30.8,53.8,61.5s-17.9,64-56.4,64h-165.2v-125.5ZM433.3,711.2h-196v-162.7h196c46.1,0,69.2,41,69.2,82s-23.1,80.7-69.2,80.7Z"/>
      </g>
    </g>
  </g>
</svg>